<?xml version="1.0" encoding="UTF-8" standalone="no"?>
<!DOCTYPE svg PUBLIC "-//W3C//DTD SVG 1.1//EN" "http://www.w3.org/Graphics/SVG/1.1/DTD/svg11.dtd">
<!-- Generated by Microsoft Visio, SVG Export matter_nrfconnect_overview_simplified_ncs.svg Page-1 -->
<svg xmlns="http://www.w3.org/2000/svg" xmlns:xlink="http://www.w3.org/1999/xlink" xmlns:ev="http://www.w3.org/2001/xml-events"
		width="7.28694in" height="6.24892in" viewBox="0 0 524.66 449.922" xml:space="preserve" color-interpolation-filters="sRGB"
		class="st25">
	<style type="text/css">
	<![CDATA[
		.st1 {fill:#00a9ce;stroke:none;stroke-linecap:round;stroke-linejoin:round;stroke-width:0.75}
		.st2 {fill:#feffff;font-family:Calibri;font-size:1.00001em}
		.st3 {fill:#0033a0;stroke:none;stroke-width:1}
		.st4 {fill:#ffffff;font-family:Calibri;font-size:1.00001em}
		.st5 {font-size:1em}
		.st6 {stroke:none;stroke-linecap:round;stroke-linejoin:round;stroke-width:0.75}
		.st7 {fill:#00a9ce;stroke:none;stroke-width:1}
		.st8 {fill:#ffffff;font-family:Calibri;font-size:0.833336em}
		.st9 {fill:#768692;stroke:none;stroke-width:1}
		.st10 {fill:#333f48;stroke:none;stroke-width:1}
		.st11 {fill:#0077c8;stroke:none;stroke-linecap:round;stroke-linejoin:round;stroke-width:0.75}
		.st12 {fill:#333f48;stroke:none;stroke-linecap:round;stroke-linejoin:round;stroke-width:0.75}
		.st13 {fill:#f2f2f2;font-family:Calibri;font-size:0.833336em}
		.st14 {fill:#d9e1e2;stroke:none;stroke-width:1}
		.st15 {fill:#333f48;font-family:Calibri;font-size:1.00001em}
		.st16 {fill:#d0df00;stroke:none;stroke-linecap:round;stroke-linejoin:round;stroke-width:0.75}
		.st17 {fill:none;stroke:#768692;stroke-width:1}
		.st18 {fill:#d0df00;stroke:none;stroke-width:1}
		.st19 {fill:none;stroke:none;stroke-width:1}
		.st20 {fill:#333f48;font-family:Calibri;font-size:0.666664em}
		.st21 {fill:#6ad1e3;stroke:none;stroke-width:1}
		.st22 {fill:#768692;stroke:none;stroke-linecap:round;stroke-linejoin:round;stroke-width:0.75}
		.st23 {marker-end:url(#mrkr13-168);marker-start:url(#mrkr13-166);stroke:#00a9ce;stroke-linecap:butt;stroke-width:1}
		.st24 {fill:#00a9ce;fill-opacity:1;stroke:#00a9ce;stroke-opacity:1;stroke-width:0.28409090909091}
		.st25 {fill:none;fill-rule:evenodd;font-size:12px;overflow:visible;stroke-linecap:square;stroke-miterlimit:3}
	]]>
	</style>

	<defs id="Markers">
		<g id="lend13">
			<path d="M 3 1 L 0 0 L 3 -1 L 3 1 " style="stroke:none"/>
		</g>
		<marker id="mrkr13-166" class="st24" refX="10.2" orient="auto" markerUnits="strokeWidth" overflow="visible">
			<use xlink:href="#lend13" transform="scale(3.52) "/>
		</marker>
		<marker id="mrkr13-168" class="st24" refX="-10.56" orient="auto" markerUnits="strokeWidth" overflow="visible">
			<use xlink:href="#lend13" transform="scale(-3.52,-3.52) "/>
		</marker>
	</defs>
	<g>
		<title>Page-1</title>
		<g id="shape3186-1" transform="translate(152.285,-373.114)">
			<title>Sheet.3186</title>
			<desc>User application</desc>
			<path d="M0 421.05 L0 449.92 L371.26 449.92 L371.26 421.05 L0 421.05 L0 421.05 Z" class="st1"/>
			<text x="145.95" y="439.09" class="st2">User application</text>		</g>
		<g id="shape3188-4" transform="translate(282.343,-106.003)">
			<title>Sheet.3188</title>
			<desc>Thread stack (OpenThread)</desc>
			<path d="M0 331.52 L0 449.92 L136.95 449.92 L136.95 331.52 L0 331.52 L0 331.52 Z" class="st3"/>
			<text x="37.45" y="387.12" class="st4">Thread stack <tspan x="34.4" dy="1.2em" class="st5">(OpenThread)</tspan></text>		</g>
		<g id="shape3189-8" transform="translate(314.933,-106.003)">
			<title>Sheet.3189</title>
			<path d="M208.73 324.79 L0 324.79 L0 449.92 L208.73 449.92 L208.73 324.79" class="st6"/>
		</g>
		<g id="shape3190-11" transform="translate(223.066,-1)">
			<title>Sheet.3190</title>
			<desc>Multiprotocol Service Layer (MPSL)</desc>
			<rect x="0" y="419.625" width="139.017" height="30.2977" class="st7"/>
			<text x="41.42" y="431.77" class="st8">Multiprotocol <tspan x="27.43" dy="1.2em" class="st5">Service Layer (MPSL)</tspan></text>		</g>
		<g id="shape3192-15" transform="translate(303.439,-72.2095)">
			<title>Sheet.3192</title>
			<desc>Zephyr integration</desc>
			<rect x="0" y="420.79" width="115.857" height="29.1324" class="st9"/>
			<text x="12.65" y="438.96" class="st4">Zephyr integration</text>		</g>
		<g id="shape3194-18" transform="translate(303.439,-37.5032)">
			<title>Sheet.3194</title>
			<desc>nRF IEEE 802.15.4 radio driver</desc>
			<path d="M115.86 419.62 L0 419.62 L0 449.92 L115.86 449.92 L115.86 419.62 Z" class="st1"/>
			<text x="14.47" y="431.17" class="st4">nRF IEEE 802.15.4 <tspan x="29.5" dy="1.2em" class="st5">radio driver</tspan></text>		</g>
		<g id="shape3195-22" transform="translate(383.007,-37.5032)">
			<title>Sheet.3195</title>
			<path d="M139.02 420.29 L0 420.29 L0 449.92 L139.02 449.92 L139.02 420.29" class="st6"/>
		</g>
		<g id="shape3196-25" transform="translate(281.984,-229.267)">
			<title>Sheet.3196</title>
			<path d="M0 378.37 L0 449.92 L241.68 449.92 L241.68 378.37 L0 378.37 L0 378.37 Z" class="st9"/>
		</g>
		<g id="shape3197-27" transform="translate(282.313,-281.826)">
			<title>Sheet.3197</title>
			<desc>Zephyr network layer</desc>
			<path d="M240.97 433.64 L0 433.64 L0 449.92 L240.97 449.92 L240.97 433.64" class="st6"/>
			<text x="68.4" y="445.38" class="st4">Zephyr network layer</text>		</g>
		<g id="shape3198-31" transform="translate(286.38,-258.151)">
			<title>Sheet.3198</title>
			<desc>UDP</desc>
			<path d="M114.32 431.28 L0 431.28 L0 449.92 L114.32 449.92 L114.32 431.28 Z" class="st10"/>
			<text x="46.52" y="444.2" class="st2">UDP</text>		</g>
		<g id="shape3200-34" transform="translate(404.784,-258.151)">
			<title>Sheet.3200</title>
			<desc>TCP</desc>
			<path d="M114.32 431.07 L0 431.07 L0 449.92 L114.32 449.92 L114.32 431.07 Z" class="st10"/>
			<text x="47.94" y="444.1" class="st2">TCP</text>		</g>
		<g id="shape3202-37" transform="translate(286.38,-236.071)">
			<title>Sheet.3202</title>
			<desc>IPv6</desc>
			<path d="M232.72 431.28 L0 431.28 L0 449.92 L232.72 449.92 L232.72 431.28 Z" class="st10"/>
			<text x="106" y="444.8" class="st4">IPv6</text>		</g>
		<g id="shape3203-40" transform="translate(320.401,-237.831)">
			<title>Sheet.3203</title>
			<path d="M196.93 431.28 L0 431.28 L0 449.92 L196.93 449.92 L196.93 431.28" class="st6"/>
		</g>
		<g id="shape3204-43" transform="translate(15.9325,-37.5032)">
			<title>Sheet.3204</title>
			<desc>Drivers and modules</desc>
			<rect x="0" y="349.493" width="131.865" height="100.429" class="st7"/>
			<text x="15.78" y="365.96" class="st4">Drivers and modules</text>		</g>
		<g id="shape3205-46" transform="translate(82.9366,-47.5247)">
			<title>Sheet.3205</title>
			<desc>Crypto backends</desc>
			<path d="M58.33 419.62 L0 419.62 L0 449.92 L58.33 449.92 L58.33 419.62 Z" class="st11"/>
			<text x="15.56" y="431.77" class="st8">Crypto <tspan x="10.06" dy="1.2em" class="st5">backends</tspan></text>		</g>
		<g id="shape3206-50" transform="translate(21.2463,-47.5247)">
			<title>Sheet.3206</title>
			<desc>NFC</desc>
			<path d="M58.33 419.62 L0 419.62 L0 449.92 L58.33 449.92 L58.33 419.62 Z" class="st11"/>
			<text x="20.98" y="437.77" class="st8">NFC</text>		</g>
		<g id="shape3207-53" transform="translate(21.2463,-82.4835)">
			<title>Sheet.3207</title>
			<desc>DFU</desc>
			<path d="M58.33 419.62 L0 419.62 L0 449.92 L58.33 449.92 L58.33 419.62 Z" class="st11"/>
			<text x="20.59" y="437.77" class="st8">DFU</text>		</g>
		<g id="shape3208-56" transform="translate(82.9366,-82.4835)">
			<title>Sheet.3208</title>
			<desc>Partition Manager</desc>
			<path d="M58.33 419.62 L0 419.62 L0 449.92 L58.33 449.92 L58.33 419.62 Z" class="st11"/>
			<text x="11.54" y="431.77" class="st8">Partition <tspan x="10.89" dy="1.2em" class="st5">Manager</tspan></text>		</g>
		<g id="shape3209-60" transform="translate(15.9325,-141.661)">
			<title>Sheet.3209</title>
			<desc>Zephyr APIs</desc>
			<rect x="0" y="378.373" width="131.865" height="71.5491" class="st9"/>
			<text x="37.24" y="394.84" class="st4">Zephyr APIs</text>		</g>
		<g id="shape3210-63" transform="translate(82.9367,-149.371)">
			<title>Sheet.3210</title>
			<desc>Driver API</desc>
			<path d="M58.33 410.3 L0 410.3 L0 449.92 L58.33 449.92 L58.33 410.3 Z" class="st12"/>
			<text x="8.85" y="433.11" class="st13">Driver API</text>		</g>
		<g id="shape3211-66" transform="translate(21.2463,-149.371)">
			<title>Sheet.3211</title>
			<desc>Crypto API</desc>
			<path d="M58.33 410.3 L0 410.3 L0 449.92 L58.33 449.92 L58.33 410.3 Z" class="st12"/>
			<text x="7.69" y="433.11" class="st13">Crypto API</text>		</g>
		<g id="shape3212-69" transform="translate(15.9325,-217.03)">
			<title>Sheet.3212</title>
			<desc>Zephyr RTOS kernel</desc>
			<rect x="0" y="411.539" width="131.865" height="38.3831" class="st9"/>
			<text x="18.08" y="434.33" class="st4">Zephyr RTOS kernel</text>		</g>
		<g id="shape3213-72" transform="translate(15.9325,-259.822)">
			<title>Sheet.3213</title>
			<desc>MCU bootloader</desc>
			<rect x="0" y="409.953" width="62.6467" height="39.9696" class="st3"/>
			<text x="19.14" y="426.34" class="st4">MCU <tspan x="4.19" dy="1.2em" class="st5">bootloader</tspan></text>		</g>
		<g id="shape3214-76" transform="translate(82.5412,-259.822)">
			<title>Sheet.3214</title>
			<desc>mbedTLS</desc>
			<rect x="0" y="409.953" width="65.2565" height="39.9696" class="st3"/>
			<text x="10.34" y="433.54" class="st4">mbedTLS</text>		</g>
		<g id="shape3226-79" transform="translate(152.194,-37.5032)">
			<title>Sheet.3226</title>
			<path d="M0 186.57 L0 449.92 L124.69 449.92 L124.69 186.57 L0 186.57 L0 186.57 Z" class="st14"/>
		</g>
		<g id="shape3228-81" transform="translate(158.567,-46.8255)">
			<title>Sheet.3228</title>
			<desc>SoftDevice Controller</desc>
			<rect x="0" y="400.067" width="112.352" height="49.8552" class="st1"/>
			<text x="4.16" y="428.59" class="st4">SoftDevice Controller</text>		</g>
		<g id="shape3235-84" transform="translate(152.194,-281.826)">
			<title>Sheet.3235</title>
			<desc>Bluetooth® LE stack</desc>
			<path d="M127.38 433.64 L0 433.64 L0 449.92 L127.38 449.92 L127.38 433.64" class="st6"/>
			<text x="15.71" y="445.38" class="st15">Bluetooth® LE stack</text>		</g>
		<g id="shape3241-88" transform="translate(152.285,-339.289)">
			<title>Sheet.3241</title>
			<desc>Matter stack</desc>
			<path d="M0 421.05 L0 449.92 L371.26 449.92 L371.26 421.05 L0 421.05 L0 421.05 Z" class="st16"/>
			<text x="154.68" y="439.09" class="st15">Matter stack</text>		</g>
		<g id="shape3242-91" transform="translate(152.285,-305.464)">
			<title>Sheet.3242</title>
			<desc>Zephyr integration layer</desc>
			<path d="M0 421.05 L0 449.92 L371.26 449.92 L371.26 421.05 L0 421.05 L0 421.05 Z" class="st16"/>
			<text x="126.95" y="439.09" class="st15">Zephyr integration layer</text>		</g>
		<g id="shape3227-94" transform="translate(158.294,-104.383)">
			<title>Sheet.3227</title>
			<desc>Zephyr host</desc>
			<rect x="0" y="277.459" width="112.352" height="172.464" class="st9"/>
			<text x="27.24" y="293.93" class="st4">Zephyr host</text>		</g>
		<g id="shape3229-97" transform="translate(164.12,-119.357)">
			<title>Sheet.3229</title>
			<desc>L2CAP</desc>
			<path d="M79.6 409.95 L0 409.95 L0 449.92 L79.6 449.92 L79.6 409.95 Z" class="st12"/>
			<text x="24.46" y="433.54" class="st4">L2CAP</text>		</g>
		<g id="shape3230-100" transform="translate(163.927,-207.745)">
			<title>Sheet.3230</title>
			<desc>GATT</desc>
			<path d="M37.27 409.95 L0 409.95 L0 449.92 L37.27 449.92 L37.27 409.95 Z" class="st12"/>
			<text x="5.53" y="433.54" class="st4">GATT</text>		</g>
		<g id="shape3231-103" transform="translate(164.12,-163.639)">
			<title>Sheet.3231</title>
			<desc>ATT</desc>
			<path d="M37.27 409.95 L0 409.95 L0 449.92 L37.27 449.92 L37.27 409.95 Z" class="st12"/>
			<text x="9.32" y="433.54" class="st4">ATT</text>		</g>
		<g id="shape3232-106" transform="translate(206.487,-207.745)">
			<title>Sheet.3232</title>
			<desc>GAP</desc>
			<path d="M44.32 409.95 L0 409.95 L0 449.92 L44.32 449.92 L44.32 409.95 Z" class="st12"/>
			<text x="11.8" y="433.54" class="st4">GAP</text>		</g>
		<g id="shape3233-109" transform="translate(698.466,202.208) rotate(90)">
			<title>Sheet.3233</title>
			<path d="M128.18 433.49 L0 433.49 L0 449.92 L128.18 449.92 L128.18 433.49 Z" class="st12"/>
		</g>
		<g id="shape3234-111" transform="translate(206.447,-163.639)">
			<title>Sheet.3234</title>
			<desc>SMP</desc>
			<path d="M37.27 409.95 L0 409.95 L0 449.92 L37.27 449.92 L37.27 409.95 Z" class="st12"/>
			<text x="7.65" y="433.54" class="st4">SMP</text>		</g>
		<g id="shape3261-114" transform="translate(1,-334.338)">
			<title>Nordic Light Grey</title>
			<rect x="0" y="335.338" width="127.378" height="114.584" class="st17"/>
		</g>
		<g id="group3290-116" transform="translate(5.8114,-337.872)">
			<title>Sheet.3290</title>
			<g id="shape3271-117">
				<title>Sheet.3271</title>
				<rect x="0" y="431.916" width="28.1738" height="18.0063" class="st18"/>
			</g>
			<g id="shape3282-119" transform="translate(34.6999,-0.862791)">
				<title>Sheet.3282</title>
				<desc>Matter (build with GN)</desc>
				<rect x="0" y="433.641" width="83.0556" height="16.2807" class="st19"/>
				<text x="4" y="444.18" class="st20">Matter (build with GN)</text>			</g>
		</g>
		<g id="group3293-122" transform="translate(5.8114,-381.691)">
			<title>Sheet.3293</title>
			<g id="shape3220-123">
				<title>Sheet.3220</title>
				<rect x="0" y="431.916" width="28.1738" height="18.0063" class="st21"/>
			</g>
			<g id="shape3278-125" transform="translate(34.6999,-0.862791)">
				<title>Sheet.3278</title>
				<desc>Nordic component</desc>
				<rect x="0" y="433.641" width="83.0556" height="16.2807" class="st19"/>
				<text x="4" y="444.18" class="st20">Nordic component</text>			</g>
		</g>
		<g id="group3294-128" transform="translate(5.8114,-403.359)">
			<title>Sheet.3294</title>
			<g id="shape3222-129">
				<title>Sheet.3222</title>
				<rect x="0" y="431.916" width="28.1738" height="18.0063" class="st9"/>
			</g>
			<g id="shape3276-131" transform="translate(34.6999,-0.862791)">
				<title>Sheet.3276</title>
				<desc>Zephyr</desc>
				<rect x="0" y="433.641" width="83.0556" height="16.2807" class="st19"/>
				<text x="4" y="444.18" class="st20">Zephyr</text>			</g>
		</g>
		<g id="group3295-134" transform="translate(5.8114,-425.028)">
			<title>Sheet.3295</title>
			<g id="shape3223-135">
				<title>Sheet.3223</title>
				<rect x="0" y="431.916" width="28.1738" height="18.0063" class="st1"/>
			</g>
			<g id="shape3274-137" transform="translate(34.6999,-0.862791)">
				<title>Sheet.3274</title>
				<desc>nRF Connect SDK</desc>
				<rect x="0" y="433.641" width="83.0556" height="16.2807" class="st19"/>
				<text x="4" y="444.18" class="st20">nRF Connect SDK</text>			</g>
		</g>
		<g id="shape3298-140" transform="translate(424.447,-70.497)">
			<title>Sheet.3298</title>
			<path d="M0 296.01 L0 449.92 L99.21 449.92 L99.21 296.01 L0 296.01 L0 296.01 Z" class="st7"/>
		</g>
		<g id="shape3305-142" transform="translate(424.447,-1)">
			<title>Sheet.3305</title>
			<desc>Wi-Fi RPU (MeOS)</desc>
			<path d="M99.21 419.62 L0 419.62 L0 449.92 L99.21 449.92 L99.21 419.62 Z" class="st21"/>
			<text x="5.52" y="438.37" class="st4">Wi-Fi RPU (MeOS)</text>		</g>
		<g id="shape3308-145" transform="translate(431.398,-73.0482)">
			<title>Sheet.3308</title>
			<desc>Wi-Fi driver</desc>
			<path d="M85.61 378.37 L0 378.37 L0 449.92 L85.61 449.92 L85.61 378.37 Z" class="st22"/>
			<text x="14.35" y="393.17" class="st4">Wi-Fi driver</text>		</g>
		<g id="shape3309-148" transform="translate(435.224,-77.5346)">
			<title>Sheet.3309</title>
			<desc>wpa_supplicant</desc>
			<path d="M77.95 409.95 L0 409.95 L0 449.92 L77.95 449.92 L77.95 409.95 Z" class="st3"/>
			<text x="6.95" y="432.94" class="st8">wpa_supplicant</text>		</g>
		<g id="group3311-151" transform="translate(5.8114,-360.05)">
			<title>Sheet.3311</title>
			<g id="shape3312-152">
				<title>Sheet.3312</title>
				<rect x="0" y="431.916" width="28.1738" height="18.0063" class="st3"/>
			</g>
			<g id="shape3313-154" transform="translate(34.6999,-0.862791)">
				<title>Sheet.3313</title>
				<desc>Third-party</desc>
				<rect x="0" y="433.641" width="83.0556" height="16.2807" class="st19"/>
				<text x="4" y="444.18" class="st20">Third-party</text>			</g>
		</g>
		<g id="shape3314-157" transform="translate(424.447,-161.206)">
			<title>Sheet.3314</title>
			<desc>Wi-Fi</desc>
			<rect x="0" y="431.497" width="99.2126" height="18.4252" class="st19"/>
			<text x="36.92" y="444.31" class="st4">Wi-Fi</text>		</g>
		<g id="shape3315-160" transform="translate(481.14,-70.497)">
			<title>Dynamic connector</title>
			<path d="M-7.09 460.12 L-7.09 460.48 L-7.09 478.56" class="st23"/>
		</g>
		<g id="shape3316-169" transform="translate(474.059,-40.7332)">
			<title>Sheet.3316</title>
			<desc>SPI/QSPI</desc>
			<rect x="0" y="430.08" width="49.6009" height="19.8425" class="st19"/>
			<text x="15.11" y="436.4" class="st15">SPI/<tspan x="13.4" dy="1.2em" class="st5">QSPI</tspan></text>		</g>
	</g>
</svg>
